<svg width="48" height="48" viewBox="0 0 48 48" fill="none" xmlns="http://www.w3.org/2000/svg">
<path fill-rule="evenodd" clip-rule="evenodd" d="M35.745 12.17L30.82 13.65L34.1 22.228C36.0766 21.7438 38.1634 22.0311 39.9356 23.0314C41.7078 24.0317 43.0322 25.6697 43.6392 27.6121C44.2462 29.5544 44.0901 31.6551 43.2028 33.4865C42.3155 35.3178 40.7636 36.7422 38.8631 37.4697C36.9626 38.1971 34.8562 38.173 32.9729 37.4021C31.0896 36.6312 29.5708 35.1716 28.7257 33.3204C27.8807 31.4691 27.7729 29.3654 28.4243 27.4375C29.0757 25.5096 30.4373 23.9023 32.232 22.943L30.584 18.633L24.902 30.435C24.8201 30.6045 24.692 30.7475 24.5324 30.8475C24.3728 30.9474 24.1883 31.0003 24 31H19.938C19.6813 33.0173 18.6661 34.8611 17.0988 36.1568C15.5314 37.4525 13.5295 38.1027 11.5 37.9754C9.47041 37.848 7.56549 36.9527 6.17238 35.4713C4.77927 33.9898 4.00252 32.0336 4 30C3.99849 27.964 4.77334 26.004 6.16668 24.5193C7.56002 23.0347 9.467 22.1372 11.499 22.0097C13.5311 21.8823 15.5353 22.5343 17.1033 23.8331C18.6712 25.132 19.685 26.9797 19.938 29H22.438L17.558 15.336C17.5195 15.2282 17.4999 15.1145 17.5 15H16C15.7348 15 15.4804 14.8946 15.2929 14.7071C15.1054 14.5196 15 14.2652 15 14C15 13.7348 15.1054 13.4804 15.2929 13.2929C15.4804 13.1054 15.7348 13 16 13H20.5C20.7652 13 21.0196 13.1054 21.2071 13.2929C21.3946 13.4804 21.5 13.7348 21.5 14C21.5 14.2652 21.3946 14.5196 21.2071 14.7071C21.0196 14.8946 20.7652 15 20.5 15H19.562L21.404 20.157L29.531 15.88L28.566 13.357C28.5169 13.2285 28.4948 13.0913 28.5011 12.9539C28.5075 12.8165 28.5421 12.6819 28.6028 12.5584C28.6635 12.435 28.7491 12.3255 28.854 12.2366C28.959 12.1477 29.0812 12.0815 29.213 12.042L35.17 10.255L35.745 12.17ZM22.083 22.06L24.055 27.58L28.285 18.796L22.083 22.06ZM35.066 30.357L32.953 24.83C31.6573 25.5945 30.696 26.8178 30.2597 28.2576C29.8234 29.6973 29.9439 31.2485 30.5973 32.6036C31.2507 33.9587 32.3894 35.019 33.7876 35.5741C35.1858 36.1293 36.7416 36.139 38.1467 35.6012C39.5517 35.0634 40.7034 34.0174 41.3736 32.6705C42.0438 31.3236 42.1835 29.7741 41.7651 28.329C41.3467 26.8839 40.4007 25.6487 39.1146 24.8683C37.8284 24.0878 36.296 23.8189 34.821 24.115L36.934 29.643C37.0244 29.8898 37.014 30.1622 36.9051 30.4014C36.7962 30.6405 36.5975 30.8272 36.3521 30.9211C36.1066 31.0149 35.834 31.0083 35.5934 30.9028C35.3527 30.7972 35.1632 30.6011 35.066 30.357ZM17.917 29H12C11.7348 29 11.4804 29.1054 11.2929 29.2929C11.1054 29.4804 11 29.7348 11 30C11 30.2652 11.1054 30.5196 11.2929 30.7071C11.4804 30.8946 11.7348 31 12 31H17.917C17.6623 32.4801 16.8619 33.8109 15.6739 34.7297C14.4859 35.6485 12.9967 36.0885 11.5001 35.9629C10.0035 35.8373 8.60841 35.1553 7.59016 34.0513C6.57191 32.9474 6.00452 31.5018 6 30C5.99863 28.4946 6.56319 27.0437 7.58168 25.9352C8.60017 24.8266 9.99816 24.1414 11.4983 24.0155C12.9984 23.8897 14.491 24.3323 15.68 25.2556C16.869 26.1789 17.6675 27.5154 17.917 29Z" fill="black"/>
</svg>
