<svg width="30" height="30" viewBox="0 0 41 28" fill="none" xmlns="http://www.w3.org/2000/svg">
<path fill-rule="evenodd" clip-rule="evenodd" d="M31.745 1.915L26.82 3.395L30.1 11.973C32.0766 11.4888 34.1634 11.7761 35.9356 12.7764C37.7078 13.7766 39.0322 15.4147 39.6392 17.357C40.2462 19.2994 40.0901 21.4001 39.2028 23.2315C38.3155 25.0628 36.7636 26.4872 34.8631 27.2147C32.9626 27.9421 30.8562 27.918 28.9729 27.1471C27.0895 26.3762 25.5708 24.9166 24.7257 23.0654C23.8807 21.2141 23.7729 19.1104 24.4243 17.1825C25.0757 15.2546 26.4373 13.6473 28.232 12.688L26.584 8.378L20.902 20.18C20.8201 20.3495 20.692 20.4925 20.5324 20.5925C20.3728 20.6924 20.1883 20.7453 20 20.745H15.938C15.6813 22.7623 14.6661 24.6061 13.0988 25.9018C11.5314 27.1975 9.52954 27.8477 7.49997 27.7204C5.47041 27.593 3.56549 26.6977 2.17238 25.2163C0.779274 23.7348 0.00252301 21.7786 2.22086e-06 19.745C-0.00151396 17.709 0.77334 15.7489 2.16668 14.2643C3.56002 12.7797 5.467 11.8822 7.49904 11.7547C9.53109 11.6272 11.5353 12.2793 13.1033 13.5781C14.6712 14.877 15.685 16.7247 15.938 18.745H18.438L13.558 5.081C13.5195 4.97316 13.4999 4.8595 13.5 4.745H12C11.7348 4.745 11.4804 4.63964 11.2929 4.45211C11.1054 4.26457 11 4.01022 11 3.745C11 3.47978 11.1054 3.22543 11.2929 3.03789C11.4804 2.85036 11.7348 2.745 12 2.745H16.5C16.7652 2.745 17.0196 2.85036 17.2071 3.03789C17.3946 3.22543 17.5 3.47978 17.5 3.745C17.5 4.01022 17.3946 4.26457 17.2071 4.45211C17.0196 4.63964 16.7652 4.745 16.5 4.745H15.562L17.404 9.902L25.531 5.625L24.566 3.102C24.5169 2.97352 24.4948 2.83629 24.5011 2.69888C24.5075 2.56148 24.5421 2.42686 24.6028 2.30344C24.6635 2.18002 24.7491 2.07045 24.854 1.98159C24.959 1.89273 25.0812 1.82649 25.213 1.787L31.17 0L31.745 1.915V1.915ZM18.083 11.805L20.055 17.325L24.285 8.541L18.083 11.805V11.805ZM31.066 20.102L28.953 14.575C27.6573 15.3395 26.696 16.5628 26.2597 18.0026C25.8234 19.4423 25.9439 20.9935 26.5973 22.3486C27.2507 23.7037 28.3894 24.7639 29.7876 25.3191C31.1858 25.8743 32.7416 25.884 34.1467 25.3462C35.5517 24.8084 36.7034 23.7624 37.3736 22.4155C38.0438 21.0686 38.1835 19.5191 37.7651 18.074C37.3467 16.6289 36.4007 15.3937 35.1146 14.6132C33.8284 13.8328 32.296 13.5639 30.821 13.86L32.934 19.388C33.0244 19.6348 33.014 19.9072 32.9051 20.1464C32.7962 20.3855 32.5975 20.5722 32.3521 20.666C32.1066 20.7599 31.834 20.7533 31.5934 20.6477C31.3527 20.5422 31.1633 20.3461 31.066 20.102V20.102ZM13.917 18.745H8C7.73479 18.745 7.48043 18.8504 7.2929 19.0379C7.10536 19.2254 7 19.4798 7 19.745C7 20.0102 7.10536 20.2646 7.2929 20.4521C7.48043 20.6396 7.73479 20.745 8 20.745H13.917C13.6623 22.2251 12.8619 23.5559 11.6739 24.4747C10.4859 25.3935 8.99666 25.8335 7.50009 25.7079C6.00352 25.5823 4.60841 24.9002 3.59016 23.7963C2.57191 22.6924 2.00452 21.2468 2 19.745C1.99863 18.2396 2.56319 16.7887 3.58168 15.6802C4.60017 14.5716 5.99816 13.8864 7.49828 13.7605C8.9984 13.6347 10.491 14.0773 11.68 15.0006C12.869 15.9239 13.6675 17.2604 13.917 18.745V18.745Z" fill="white"/>
</svg>
