<svg width="40" height="40" viewBox="0 0 40 40" fill="none" xmlns="http://www.w3.org/2000/svg">
<path fill-rule="evenodd" clip-rule="evenodd" d="M29.7874 10.1417L25.6833 11.375L28.4166 18.5233C30.0637 18.1199 31.8027 18.3593 33.2795 19.1928C34.7564 20.0264 35.8601 21.3914 36.3659 23.01C36.8717 24.6287 36.7417 26.3793 36.0023 27.9054C35.2628 29.4315 33.9696 30.6185 32.3858 31.2247C30.8021 31.8309 29.0468 31.8108 27.4773 31.1684C25.9079 30.526 24.6422 29.3097 23.938 27.767C23.2338 26.2243 23.144 24.4712 23.6868 22.8646C24.2296 21.258 25.3643 19.9186 26.8599 19.1192L25.4866 15.5275L20.7516 25.3625C20.6833 25.5038 20.5766 25.6229 20.4436 25.7062C20.3106 25.7895 20.1568 25.8336 19.9999 25.8333H16.6149C16.401 27.5144 15.555 29.051 14.2489 30.1307C12.9428 31.2104 11.2745 31.7523 9.58323 31.6462C7.89193 31.54 6.30449 30.7939 5.14357 29.5594C3.98265 28.3249 3.33535 26.6946 3.33325 25C3.33199 23.3033 3.9777 21.67 5.13882 20.4328C6.29994 19.1956 7.88908 18.4477 9.58245 18.3415C11.2758 18.2352 12.946 18.7786 14.2526 19.861C15.5593 20.9433 16.4041 22.4831 16.6149 24.1667H18.6983L14.6316 12.78C14.5995 12.6901 14.5832 12.5954 14.5833 12.5H13.3333C13.1122 12.5 12.9003 12.4122 12.744 12.2559C12.5877 12.0996 12.4999 11.8877 12.4999 11.6667C12.4999 11.4457 12.5877 11.2337 12.744 11.0774C12.9003 10.9211 13.1122 10.8333 13.3333 10.8333H17.0833C17.3043 10.8333 17.5162 10.9211 17.6725 11.0774C17.8288 11.2337 17.9166 11.4457 17.9166 11.6667C17.9166 11.8877 17.8288 12.0996 17.6725 12.2559C17.5162 12.4122 17.3043 12.5 17.0833 12.5H16.3016L17.8366 16.7975L24.6091 13.2333L23.8049 11.1308C23.764 11.0238 23.7456 10.9094 23.7509 10.7949C23.7561 10.6804 23.785 10.5682 23.8356 10.4654C23.8862 10.3625 23.9575 10.2712 24.045 10.1972C24.1325 10.1231 24.2343 10.0679 24.3441 10.035L29.3083 8.54584L29.7874 10.1417V10.1417ZM18.4024 18.3833L20.0458 22.9833L23.5708 15.6633L18.4024 18.3833V18.3833ZM29.2216 25.2975L27.4608 20.6917C26.381 21.3287 25.5799 22.3482 25.2163 23.548C24.8527 24.7478 24.9531 26.0404 25.4977 27.1697C26.0422 28.299 26.991 29.1825 28.1562 29.6451C29.3214 30.1078 30.6179 30.1158 31.7888 29.6677C32.9597 29.2195 33.9194 28.3479 34.4779 27.2254C35.0364 26.103 35.1528 24.8117 34.8042 23.6075C34.4555 22.4033 33.6672 21.374 32.5954 20.7235C31.5236 20.0731 30.2466 19.8491 29.0174 20.0958L30.7783 24.7025C30.8536 24.9081 30.8449 25.1352 30.7542 25.3345C30.6634 25.5338 30.4979 25.6894 30.2933 25.7675C30.0887 25.8457 29.8616 25.8403 29.6611 25.7523C29.4605 25.6643 29.3026 25.501 29.2216 25.2975V25.2975ZM14.9308 24.1667H9.99992C9.77891 24.1667 9.56695 24.2545 9.41066 24.4107C9.25438 24.567 9.16659 24.779 9.16659 25C9.16659 25.221 9.25438 25.433 9.41066 25.5893C9.56695 25.7455 9.77891 25.8333 9.99992 25.8333H14.9308C14.7185 27.0667 14.0515 28.1757 13.0615 28.9414C12.0715 29.7071 10.8305 30.0738 9.58333 29.9691C8.33618 29.8644 7.17359 29.296 6.32505 28.3761C5.47651 27.4562 5.00369 26.2515 4.99992 25C4.99878 23.7455 5.46925 22.5364 6.31799 21.6126C7.16673 20.6888 8.33172 20.1179 9.58182 20.013C10.8319 19.9081 12.0758 20.2769 13.0666 21.0463C14.0574 21.8158 14.7228 22.9295 14.9308 24.1667V24.1667Z" fill="#286EF1"/>
</svg>
