<svg width="20" height="20" viewBox="0 0 20 20" fill="none" xmlns="http://www.w3.org/2000/svg">
<g clip-path="url(#clip0_125_724)">
<path d="M4.47643 19.5956C4.25731 19.5956 4.03971 19.5272 3.85401 19.3929C3.50808 19.1422 3.34648 18.7113 3.44063 18.2955L4.72729 12.6278L0.363771 8.80109C0.0430227 8.52108 -0.0795086 8.07765 0.0521782 7.67191C0.183865 7.26693 0.542151 6.98021 0.966356 6.94099L6.73982 6.41684L9.02245 1.07506C9.19075 0.682593 9.57407 0.429138 9.99995 0.429138C10.4258 0.429138 10.8091 0.682593 10.9775 1.07414L13.2601 6.41684L19.0326 6.94099C19.4577 6.97929 19.816 7.26693 19.9477 7.67191C20.0794 8.07689 19.9576 8.52108 19.6369 8.80109L15.2734 12.627L16.56 18.2946C16.6543 18.7113 16.4926 19.1422 16.1468 19.3922C15.8018 19.6421 15.3417 19.6614 14.9784 19.443L9.99995 16.4679L5.02149 19.4447C4.85318 19.5446 4.66564 19.5956 4.47643 19.5956ZM9.99995 15.1863C10.1892 15.1863 10.3765 15.2371 10.545 15.3371L15.2435 18.1472L14.0291 12.7978C13.9425 12.4171 14.0717 12.0196 14.3659 11.762L18.486 8.1486L13.035 7.6536C12.6425 7.61774 12.305 7.371 12.1516 7.00935L9.99995 1.96833L7.84566 7.01012C7.69398 7.36932 7.35645 7.61606 6.9649 7.65192L1.51309 8.14693L5.63307 11.7603C5.92819 12.0186 6.05728 12.4154 5.96984 12.797L4.75643 18.1463L9.45489 15.3371C9.6232 15.2371 9.81074 15.1863 9.99995 15.1863ZM6.69572 6.52014C6.69572 6.52014 6.69572 6.52106 6.69481 6.52182L6.69572 6.52014ZM13.3025 6.5177L13.3034 6.51938C13.3034 6.51847 13.3034 6.51847 13.3025 6.5177Z" fill="black"/>
</g>
<defs>
<clipPath id="clip0_125_724">
<rect width="20" height="20" fill="white"/>
</clipPath>
</defs>
</svg>
