<svg width="30" height="30" viewBox="0 0 30 30" fill="none" xmlns="http://www.w3.org/2000/svg">
<path d="M28.125 6.5625C28.125 6.81114 28.0262 7.0496 27.8504 7.22541C27.6746 7.40123 27.4361 7.5 27.1875 7.5H2.8125C2.56386 7.5 2.3254 7.40123 2.14959 7.22541C1.97377 7.0496 1.875 6.81114 1.875 6.5625C1.875 6.31386 1.97377 6.0754 2.14959 5.89959C2.3254 5.72377 2.56386 5.625 2.8125 5.625H27.1875C27.4361 5.625 27.6746 5.72377 27.8504 5.89959C28.0262 6.0754 28.125 6.31386 28.125 6.5625ZM23.4375 14.0625H2.8125C2.56386 14.0625 2.3254 14.1613 2.14959 14.3371C1.97377 14.5129 1.875 14.7514 1.875 15C1.875 15.2486 1.97377 15.4871 2.14959 15.6629C2.3254 15.8387 2.56386 15.9375 2.8125 15.9375H23.4375C23.6861 15.9375 23.9246 15.8387 24.1004 15.6629C24.2762 15.4871 24.375 15.2486 24.375 15C24.375 14.7514 24.2762 14.5129 24.1004 14.3371C23.9246 14.1613 23.6861 14.0625 23.4375 14.0625ZM15 22.5H2.8125C2.56386 22.5 2.3254 22.5988 2.14959 22.7746C1.97377 22.9504 1.875 23.1889 1.875 23.4375C1.875 23.6861 1.97377 23.9246 2.14959 24.1004C2.3254 24.2762 2.56386 24.375 2.8125 24.375H15C15.2486 24.375 15.4871 24.2762 15.6629 24.1004C15.8387 23.9246 15.9375 23.6861 15.9375 23.4375C15.9375 23.1889 15.8387 22.9504 15.6629 22.7746C15.4871 22.5988 15.2486 22.5 15 22.5Z" fill="#286EF1"/>
</svg>
