<svg width="30" height="30" viewBox="0 0 30 30" fill="none" xmlns="http://www.w3.org/2000/svg">
<g clip-path="url(#clip0_99_1011)">
<path d="M22.6672 5.01795C21.7194 3.20953 20.2065 1.76039 18.359 0.891132C16.5115 0.0218772 14.4306 -0.219865 12.433 0.202709C10.4355 0.625284 8.63072 1.68903 7.29352 3.23198C5.95632 4.77494 5.15994 6.7126 5.02563 8.74994C5.01709 8.74994 0 8.96878 0 13.7499C0.00151688 15.0756 0.528788 16.3464 1.46614 17.2838C2.40349 18.2212 3.67438 18.7484 5 18.7499H18.125C18.2908 18.7499 18.4497 18.6841 18.5669 18.5669C18.6842 18.4497 18.75 18.2907 18.75 18.1249C18.75 17.9592 18.6842 17.8002 18.5669 17.683C18.4497 17.5658 18.2908 17.4999 18.125 17.4999H5C4.00544 17.4999 3.05161 17.1049 2.34835 16.4016C1.64509 15.6983 1.25 14.7445 1.25 13.7499C1.25 12.7554 1.64509 11.8016 2.34835 11.0983C3.05161 10.395 4.00544 9.99994 5 9.99994C5.62074 10.0329 6.22816 10.1925 6.7849 10.469C7.34164 10.7455 7.83592 11.133 8.23731 11.6076C8.34267 11.7293 8.4866 11.811 8.64504 11.8392C8.80347 11.8675 8.96679 11.8404 9.10767 11.7626C9.1752 11.7158 9.23281 11.6561 9.27719 11.587C9.32156 11.5178 9.35182 11.4406 9.36623 11.3597C9.38063 11.2788 9.3789 11.1958 9.36112 11.1156C9.34335 11.0354 9.30989 10.9595 9.26267 10.8923C8.53372 9.89698 7.47397 9.19403 6.27355 8.90952C6.36977 7.17238 7.02221 5.51225 8.13448 4.17442C9.24676 2.83658 10.7599 1.89201 12.4502 1.48025C14.1406 1.06849 15.9186 1.21138 17.5216 1.88782C19.1245 2.56425 20.4673 3.73835 21.3517 5.23664C19.861 5.62895 18.5473 6.51475 17.6248 7.74958C17.5732 7.81431 17.5354 7.88889 17.5136 7.96876C17.4919 8.04863 17.4867 8.13209 17.4984 8.21404C17.51 8.29599 17.5383 8.37469 17.5814 8.44532C17.6246 8.51596 17.6817 8.57704 17.7493 8.62482C17.8858 8.71274 18.0494 8.74854 18.2101 8.72567C18.3709 8.70281 18.518 8.6228 18.6245 8.50031C19.1404 7.79299 19.8182 7.21955 20.6012 6.82802C21.3842 6.43649 22.2496 6.23826 23.125 6.24994C24.3056 6.24992 25.4563 6.62139 26.4141 7.31172C27.3718 8.00205 28.0881 8.97624 28.4614 10.0963C28.8347 11.2163 28.8461 12.4255 28.494 13.5523C28.1419 14.6792 27.4442 15.6668 26.4996 16.3751C26.3671 16.4746 26.2795 16.6228 26.2561 16.7869C26.2328 16.951 26.2756 17.1177 26.3751 17.2503C26.4747 17.3829 26.6228 17.4705 26.787 17.4938C26.9511 17.5172 27.1178 17.4744 27.2504 17.3748C28.1072 16.7373 28.8023 15.9075 29.2799 14.9522C29.7575 13.9969 30.0041 12.9429 30 11.8749C30 5.22932 22.8269 5.00574 22.6672 5.01795Z" fill="#286EF1"/>
<path d="M21.3849 15.2371C21.1792 15.4971 19.375 17.8216 19.375 19.375C19.375 21.3318 20.3095 22.5 21.875 22.5C23.4406 22.5 24.375 21.3318 24.375 19.375C24.375 17.8216 22.5708 15.4971 22.3651 15.2371C22.3044 15.1666 22.2292 15.11 22.1446 15.0712C22.06 15.0324 21.9681 15.0123 21.875 15.0123C21.7819 15.0123 21.69 15.0324 21.6054 15.0712C21.5208 15.11 21.4456 15.1666 21.3849 15.2371ZM21.875 21.25C21.5659 21.25 20.625 21.25 20.625 19.375C20.625 18.717 21.2714 17.5628 21.8753 16.6815C22.4789 17.5616 23.125 18.7158 23.125 19.375C23.125 21.25 22.1841 21.25 21.875 21.25Z" fill="#286EF1"/>
<path d="M6.98578 23.3947C6.57654 23.9874 5.625 25.451 5.625 26.25C5.625 26.7473 5.82254 27.2242 6.17417 27.5758C6.52581 27.9274 7.00272 28.125 7.5 28.125C7.99728 28.125 8.47419 27.9274 8.82583 27.5758C9.17746 27.2242 9.375 26.7473 9.375 26.25C9.375 25.451 8.42346 23.9874 8.01422 23.3947C7.9537 23.3159 7.87585 23.252 7.78668 23.208C7.69751 23.164 7.59942 23.1411 7.5 23.1411C7.40058 23.1411 7.30249 23.164 7.21332 23.208C7.12415 23.252 7.0463 23.3159 6.98578 23.3947ZM7.5 26.875C7.33439 26.8748 7.17559 26.809 7.05842 26.692C6.94126 26.5749 6.87529 26.4162 6.875 26.2506C7.0108 25.7729 7.22177 25.3198 7.5 24.9084C7.77832 25.3198 7.9893 25.7728 8.125 26.2506C8.12465 26.4162 8.05868 26.5749 7.94152 26.6919C7.82437 26.809 7.6656 26.8748 7.5 26.875Z" fill="#286EF1"/>
<path d="M16.3608 25.2697C15.9515 25.8624 15 27.326 15 28.125C15 28.6223 15.1975 29.0992 15.5492 29.4508C15.9008 29.8024 16.3777 30 16.875 30C17.3723 30 17.8492 29.8024 18.2008 29.4508C18.5525 29.0992 18.75 28.6223 18.75 28.125C18.75 27.326 17.7985 25.8624 17.3892 25.2697C17.3287 25.1909 17.2508 25.127 17.1617 25.083C17.0725 25.039 16.9744 25.0161 16.875 25.0161C16.7756 25.0161 16.6775 25.039 16.5883 25.083C16.4992 25.127 16.4213 25.1909 16.3608 25.2697ZM16.875 28.75C16.7094 28.7498 16.5506 28.684 16.4334 28.567C16.3163 28.4499 16.2503 28.2912 16.25 28.1256C16.3858 27.6479 16.5968 27.1948 16.875 26.7834C17.1533 27.1948 17.3643 27.6478 17.5 28.1256C17.4997 28.2912 17.4337 28.4499 17.3165 28.5669C17.1994 28.684 17.0406 28.7498 16.875 28.75Z" fill="#286EF1"/>
<path d="M11.9858 19.6448C11.5765 20.2374 10.625 21.701 10.625 22.5C10.625 22.9973 10.8225 23.4742 11.1742 23.8258C11.5258 24.1774 12.0027 24.375 12.5 24.375C12.9973 24.375 13.4742 24.1774 13.8258 23.8258C14.1775 23.4742 14.375 22.9973 14.375 22.5C14.375 21.701 13.4235 20.2374 13.0142 19.6448C12.9537 19.5659 12.8758 19.502 12.7867 19.458C12.6975 19.414 12.5994 19.3911 12.5 19.3911C12.4006 19.3911 12.3025 19.414 12.2133 19.458C12.1242 19.502 12.0463 19.5659 11.9858 19.6448ZM12.5 23.125C12.3344 23.1248 12.1756 23.059 12.0584 22.942C11.9413 22.8249 11.8753 22.6662 11.875 22.5006C12.0108 22.0229 12.2218 21.5698 12.5 21.1584C12.7783 21.5698 12.9893 22.0228 13.125 22.5006C13.1247 22.6662 13.0587 22.8249 12.9415 22.9419C12.8244 23.059 12.6656 23.1248 12.5 23.125Z" fill="#286EF1"/>
</g>
<defs>
<clipPath id="clip0_99_1011">
<rect width="30" height="30" fill="white"/>
</clipPath>
</defs>
</svg>
