<svg width="35" height="35" viewBox="0 0 35 35" fill="none" xmlns="http://www.w3.org/2000/svg">
<path d="M31.7188 25.1562H8.20312V27.3438H31.7188V25.1562Z" fill="#286EF1"/>
<path d="M8.20314 24.0658H9.29689V20.7813H10.9375V24.0658H12.0313V20.7813H18.0469V24.0625H19.1406V20.7813H20.7813V24.0625H21.875V20.7813H26.7969V18.5938H21.8668C21.8595 18.4818 21.8412 18.3708 21.8121 18.2624L19.262 8.38416C19.1908 8.12496 19.0601 7.8859 18.8804 7.68593C18.7008 7.48596 18.477 7.33056 18.2269 7.23203C17.9768 7.13349 17.7072 7.09454 17.4394 7.11825C17.1716 7.14195 16.913 7.22767 16.6841 7.36861C16.5077 7.48208 16.3535 7.62682 16.2291 7.79572C16.0098 7.50718 15.7054 7.29487 15.3589 7.18881C15.0124 7.08275 14.6413 7.08831 14.2981 7.2047C13.9549 7.3211 13.657 7.54243 13.4465 7.83741C13.236 8.13238 13.1235 8.48607 13.125 8.84846V17.5H14.2188V8.84846C14.2178 8.69422 14.2726 8.54484 14.3732 8.42789C14.4737 8.31094 14.6132 8.23433 14.7659 8.2122C14.9185 8.19007 15.074 8.22392 15.2036 8.3075C15.3332 8.39107 15.4283 8.51873 15.4711 8.66689L15.8594 10.1719V17.5H16.9531V14.4025L18.0234 18.544C18.0277 18.5604 18.0267 18.5774 18.0299 18.5938H12.0225C12.0151 18.4829 11.9968 18.373 11.9678 18.2656L9.4183 8.38744C9.35353 8.15359 9.24051 7.93589 9.08651 7.74836C8.93251 7.56083 8.74095 7.40763 8.52416 7.29861C8.16675 7.11233 7.7544 7.06039 7.36195 7.1522C6.96951 7.24401 6.623 7.4735 6.38533 7.799C6.16605 7.51043 5.86159 7.2981 5.51501 7.19205C5.16844 7.08601 4.79729 7.09161 4.45408 7.20807C4.11086 7.32453 3.81295 7.54595 3.60248 7.84102C3.39202 8.13608 3.27964 8.48985 3.28127 8.85229V17.5033H4.37502V8.85229C4.37431 8.74306 4.40161 8.63547 4.4543 8.53979C4.50699 8.44411 4.58331 8.36352 4.67599 8.30572C4.76868 8.24792 4.87462 8.21482 4.98373 8.2096C5.09283 8.20438 5.20145 8.2272 5.29924 8.27588C5.37821 8.31536 5.44814 8.37078 5.50462 8.43864C5.56109 8.50651 5.60289 8.58534 5.62736 8.67018L6.01564 10.1719V17.5H7.10939V14.4063L8.17963 18.5467C8.18345 18.5626 8.18291 18.5779 8.18564 18.5938H3.28127V20.7813H8.20314V24.0658ZM16.9531 10.0313V8.84846C16.9521 8.69422 17.007 8.54484 17.1076 8.42789C17.2081 8.31094 17.3476 8.23433 17.5002 8.2122C17.6529 8.19007 17.8084 8.22392 17.938 8.3075C18.0676 8.39107 18.1626 8.51873 18.2055 8.66689L20.7577 18.544C20.7621 18.5604 20.761 18.5774 20.7643 18.5938H19.1324C19.1252 18.4818 19.1068 18.3708 19.0777 18.2624L16.9531 10.0313ZM7.10939 10.0346V8.85229C7.10869 8.74306 7.13598 8.63547 7.18867 8.53979C7.24136 8.44411 7.31769 8.36352 7.41037 8.30572C7.50305 8.24792 7.609 8.21482 7.7181 8.2096C7.82721 8.20438 7.93583 8.2272 8.03361 8.27588C8.11258 8.31536 8.18252 8.37078 8.23899 8.43864C8.29547 8.50651 8.33726 8.58534 8.36173 8.67018L10.914 18.5467C10.9178 18.5626 10.9173 18.5779 10.92 18.5938H9.28814C9.28071 18.4829 9.2624 18.373 9.23345 18.2656L7.10939 10.0346Z" fill="#286EF1"/>
<path d="M31.7188 18.7206C31.7188 18.5668 31.6984 18.4136 31.6581 18.2651L29.1058 8.38744C29.041 8.15359 28.928 7.93589 28.774 7.74836C28.62 7.56083 28.4285 7.40763 28.2117 7.29861C27.8543 7.11233 27.4419 7.06039 27.0495 7.1522C26.657 7.24401 26.3105 7.4735 26.0728 7.799C25.8536 7.51043 25.5491 7.2981 25.2025 7.19205C24.8559 7.08601 24.4848 7.09161 24.1416 7.20807C23.7984 7.32453 23.5005 7.54595 23.29 7.84102C23.0795 8.13608 22.9671 8.48985 22.9688 8.85229V17.5033H24.0625V8.85229C24.0618 8.74306 24.0891 8.63547 24.1418 8.53979C24.1945 8.44411 24.2708 8.36352 24.3635 8.30572C24.4562 8.24792 24.5621 8.21482 24.6712 8.2096C24.7803 8.20438 24.889 8.2272 24.9867 8.27588C25.0657 8.31536 25.1356 8.37078 25.1921 8.43864C25.2486 8.50651 25.2904 8.58534 25.3149 8.67018L25.7031 10.1719V17.5H26.7969V14.4063L27.8671 18.5467C27.8825 18.6035 27.8904 18.6619 27.8906 18.7206V24.0658H28.9844V18.7206C28.9844 18.5668 28.964 18.4136 28.9237 18.2651L26.7969 10.0346V8.85229C26.7962 8.74306 26.8235 8.63547 26.8762 8.53979C26.9289 8.44411 27.0052 8.36352 27.0979 8.30572C27.1906 8.24792 27.2965 8.21482 27.4056 8.2096C27.5147 8.20438 27.6233 8.2272 27.7211 8.27588C27.8001 8.31536 27.87 8.37078 27.9265 8.43864C27.983 8.50651 28.0248 8.58534 28.0492 8.67018L30.6015 18.5467C30.6168 18.6035 30.6247 18.6619 30.625 18.7206V24.0658H31.7188V18.7206Z" fill="#286EF1"/>
<path d="M2.1875 18.5938H1.09375V20.7812H2.1875V18.5938Z" fill="#286EF1"/>
<path d="M7.10938 25.1562H6.01562V27.3438H7.10938V25.1562Z" fill="#286EF1"/>
<path d="M33.9062 25.1562H32.8125V27.3438H33.9062V25.1562Z" fill="#286EF1"/>
</svg>
