<svg width="40" height="40" viewBox="0 0 40 40" fill="none" xmlns="http://www.w3.org/2000/svg">
<path d="M38.1605 21.9269C38.3416 21.8147 38.4908 21.6579 38.594 21.4716C38.6972 21.2852 38.7509 21.0755 38.7499 20.8625V19.1375C38.752 18.9045 38.6887 18.6755 38.5672 18.4766C38.4457 18.2777 38.2708 18.1169 38.0624 18.0125L33.4305 15.7L22.8868 9.84564C22.3277 9.5384 21.7004 9.37657 21.0624 9.37501C20.4412 9.37358 19.8294 9.52618 19.2816 9.81914C18.7339 10.1121 18.2673 10.5363 17.9237 11.0538L12.6812 18.9138L2.79053 24.9581L3.4424 26.025L13.4505 19.9088C13.5281 19.861 13.5944 19.7971 13.6449 19.7213L18.9643 11.7456C19.1942 11.4 19.5061 11.1168 19.8723 10.9212C20.2384 10.7257 20.6473 10.6239 21.0624 10.625C21.4892 10.6259 21.9089 10.7333 22.2837 10.9375L32.8462 16.8069L37.4999 19.1375V20.8669L35.9062 20.0663C35.8259 20.0258 35.7378 20.0031 35.648 19.9998C35.5581 19.9964 35.4686 20.0125 35.3856 20.0469C35.3025 20.0813 35.2278 20.1333 35.1667 20.1992C35.1055 20.2651 35.0593 20.3434 35.0312 20.4288L34.5937 21.8663L34.4818 21.8631L34.5193 19.8256C34.5218 19.7019 34.4875 19.5801 34.4207 19.4759C34.354 19.3716 34.2578 19.2895 34.1443 19.24L22.5249 14.2219C22.0975 14.0456 21.6201 14.0334 21.1843 14.1876C20.7485 14.3418 20.385 14.6516 20.1637 15.0575L16.9512 20.9506C16.9011 21.0425 16.8749 21.1454 16.8749 21.25V24.9738C16.8749 25.0732 16.8987 25.1711 16.9442 25.2595C16.9896 25.3479 17.0555 25.4241 17.1364 25.4819C17.2172 25.5397 17.3107 25.5774 17.409 25.5919C17.5074 25.6063 17.6077 25.5971 17.7018 25.565L19.4699 24.9619C19.5304 25.2617 19.6347 25.5511 19.7793 25.8206L20.6874 27.4606C20.8464 27.748 21.0609 28.0009 21.3184 28.2047C21.5759 28.4086 21.8712 28.5593 22.1874 28.6481C22.5029 28.7393 22.8334 28.7669 23.1597 28.7294C23.4859 28.6918 23.8015 28.5899 24.088 28.4294L29.0049 25.6981C29.3637 25.4989 29.6798 25.2309 29.9351 24.9094C30.1903 24.588 30.3797 24.2194 30.4925 23.8247C30.6053 23.43 30.6392 23.017 30.5923 22.6092C30.5454 22.2015 30.4187 21.8069 30.2193 21.4481L29.6124 20.3556C29.2092 19.6317 28.5353 19.0972 27.7385 18.8695C26.9418 18.6419 26.0872 18.7396 25.3624 19.1413L20.9937 21.5725C20.6339 21.7709 20.3171 22.0389 20.0617 22.3607C19.8064 22.6826 19.6175 23.052 19.5062 23.4475C19.4874 23.51 19.4843 23.5781 19.4705 23.6431L18.1249 24.1006V21.4094L21.2599 15.6594C21.3332 15.5253 21.4527 15.4225 21.5963 15.3702C21.7398 15.3178 21.8975 15.3195 22.0399 15.375L33.2612 20.2219L33.2312 21.8394C33.2278 22.0024 33.2569 22.1645 33.3167 22.3161C33.3764 22.4678 33.4657 22.6062 33.5793 22.7231C33.7942 22.9543 34.0915 23.0915 34.4068 23.105L34.523 23.1138C34.7923 23.1205 35.0565 23.04 35.2764 22.8843C35.4962 22.7287 35.6599 22.5062 35.743 22.25L35.993 21.5056L36.9443 21.9838C37.135 22.0787 37.3469 22.1234 37.5598 22.1134C37.7727 22.1035 37.9795 22.0393 38.1605 21.9269ZM24.0355 21.5219C24.0728 21.3916 24.1514 21.2769 24.2595 21.1952C24.3676 21.1135 24.4994 21.0691 24.6349 21.0688C24.7466 21.0684 24.8564 21.098 24.9528 21.1545C25.0492 21.211 25.1287 21.2924 25.183 21.39L25.4862 21.9363C25.5666 22.081 25.5863 22.2517 25.5409 22.411C25.4956 22.5702 25.3889 22.705 25.2443 22.7856C25.0993 22.8659 24.9284 22.8853 24.7691 22.8396C24.6098 22.7939 24.4752 22.6868 24.3949 22.5419L24.0918 21.9956C24.0515 21.9243 24.0258 21.8458 24.016 21.7644C24.0062 21.6831 24.0127 21.6007 24.0349 21.5219H24.0355ZM25.553 24.2538C25.5752 24.1747 25.6129 24.1009 25.6638 24.0365C25.7148 23.9721 25.7781 23.9185 25.8499 23.8788C25.9423 23.8269 26.0465 23.7996 26.1524 23.7994C26.2107 23.7997 26.2688 23.8079 26.3249 23.8238C26.404 23.846 26.4779 23.8838 26.5423 23.9349C26.6066 23.9859 26.6602 24.0493 26.6999 24.1213L27.003 24.6688C27.0465 24.7407 27.075 24.8206 27.0868 24.9038C27.0987 24.987 27.0936 25.0718 27.0719 25.153C27.0503 25.2342 27.0125 25.3102 26.9608 25.3764C26.9091 25.4427 26.8446 25.4978 26.7711 25.5385C26.6976 25.5793 26.6166 25.6048 26.533 25.6135C26.4495 25.6223 26.365 25.6141 26.2846 25.5894C26.2043 25.5647 26.1298 25.5241 26.0655 25.47C26.0012 25.4159 25.9485 25.3494 25.9105 25.2744L25.6068 24.7288C25.5668 24.6571 25.5413 24.5782 25.532 24.4967C25.5227 24.4152 25.5296 24.3326 25.5524 24.2538H25.553ZM26.878 20C27.213 19.9995 27.5419 20.0887 27.8308 20.2581C28.1198 20.4276 28.3581 20.6712 28.5212 20.9638L29.1274 22.0569C29.3689 22.4915 29.4278 23.0043 29.2912 23.4824C29.1547 23.9604 28.8339 24.3647 28.3993 24.6063L28.2999 24.6613C28.2667 24.4506 28.1976 24.2473 28.0955 24.06L27.7924 23.5131C27.5668 23.1088 27.1984 22.8032 26.7593 22.6563C26.8658 22.2064 26.8012 21.733 26.578 21.3281L26.2749 20.7813C26.1694 20.5957 26.0326 20.4297 25.8705 20.2906L25.9712 20.235C26.2485 20.0808 26.5607 19.9999 26.878 20ZM20.708 23.7875C20.7748 23.5502 20.8882 23.3286 21.0414 23.1354C21.1946 22.9423 21.3847 22.7816 21.6005 22.6625L22.7924 22C22.8256 22.2107 22.8947 22.414 22.9968 22.6013L23.2999 23.1481C23.5264 23.5509 23.895 23.8547 24.3337 24C24.2244 24.4523 24.2888 24.9292 24.5143 25.3363L24.818 25.8819C24.9229 26.0676 25.0591 26.2338 25.2205 26.3731L23.4824 27.3388C23.1927 27.4997 22.851 27.539 22.5323 27.4481C22.2136 27.3571 21.9441 27.1434 21.783 26.8538L20.8749 25.2138C20.7541 24.9991 20.6771 24.7626 20.6485 24.518C20.6198 24.2734 20.6401 24.0255 20.708 23.7888V23.7875Z" fill="#286EF1"/>
<path d="M4.375 13.75C4.375 14.2473 4.57254 14.7242 4.92417 15.0758C5.27581 15.4275 5.75272 15.625 6.25 15.625C7.00437 15.625 9.49187 14.6325 10.2362 14.3288C10.3513 14.2819 10.4497 14.2018 10.519 14.0987C10.5883 13.9956 10.6253 13.8742 10.6253 13.75C10.6253 13.6258 10.5883 13.5044 10.519 13.4013C10.4497 13.2982 10.3513 13.2181 10.2362 13.1712C9.49187 12.8675 7.00437 11.875 6.25 11.875C5.75272 11.875 5.27581 12.0725 4.92417 12.4242C4.57254 12.7758 4.375 13.2527 4.375 13.75ZM6.25 14.375C6.08424 14.375 5.92527 14.3092 5.80806 14.1919C5.69085 14.0747 5.625 13.9158 5.625 13.75C5.625 13.5842 5.69085 13.4253 5.80806 13.3081C5.92527 13.1908 6.08424 13.125 6.25 13.125C6.94331 13.2694 7.6215 13.4786 8.27562 13.75C7.6215 14.0214 6.94331 14.2306 6.25 14.375Z" fill="#286EF1"/>
<path d="M11.0074 12.4513C11.1219 12.4996 11.2482 12.5126 11.3702 12.4888C11.4922 12.4649 11.6043 12.4052 11.6922 12.3173C11.7801 12.2294 11.8398 12.1173 11.8636 11.9953C11.8875 11.8734 11.8744 11.747 11.8261 11.6325C11.5136 10.8919 10.4574 8.43064 9.92426 7.89689C9.57252 7.54514 9.09545 7.34753 8.59801 7.34753C8.10057 7.34753 7.62351 7.54514 7.27176 7.89689C6.92002 8.24863 6.72241 8.72569 6.72241 9.22313C6.72241 9.72058 6.92002 10.1976 7.27176 10.5494C7.80551 11.0825 10.2668 12.14 11.0074 12.4513ZM8.15614 8.78188C8.27334 8.66472 8.43229 8.59889 8.59801 8.59889C8.76374 8.59889 8.92268 8.66472 9.03989 8.78188C9.4274 9.37478 9.75883 10.0025 10.0299 10.6569C9.37557 10.3857 8.74787 10.0543 8.15489 9.66688C8.09677 9.60875 8.05068 9.53971 8.01928 9.46374C7.98788 9.38776 7.97178 9.30633 7.9719 9.22413C7.97201 9.14192 7.98835 9.06054 8.01996 8.98465C8.05158 8.90876 8.09785 8.83986 8.15614 8.78188Z" fill="#286EF1"/>
<path d="M37.3487 15.71L38.5862 15.54C38.2345 12.9914 37.2056 10.5839 35.6066 8.56833C34.0077 6.5528 31.8973 5.00312 29.4956 4.08086C27.0939 3.15861 24.4887 2.89756 21.9517 3.32492C19.4147 3.75229 17.0388 4.85242 15.0718 6.51062L15.8749 7.46625C17.671 5.95219 19.8403 4.94767 22.1568 4.55741C24.4733 4.16714 26.852 4.40543 29.045 5.24742C31.238 6.08942 33.165 7.50429 34.6251 9.34453C36.0852 11.1848 37.0248 13.383 37.3462 15.71H37.3487Z" fill="#286EF1"/>
<path d="M13.9124 9.52749C14.0462 9.35166 14.1845 9.17978 14.3274 9.01187L14.7312 8.53499L13.7781 7.72687L13.3737 8.20374C13.2174 8.38812 13.0656 8.57874 12.9187 8.76624L12.5393 9.26624L13.5324 10.025L13.9124 9.52749Z" fill="#286EF1"/>
<path d="M31.1424 28.0181L31.6162 27.5444C31.8541 27.3167 32.1706 27.1896 32.4999 27.1896C32.8292 27.1896 33.1458 27.3167 33.3837 27.5444L33.8574 28.0169C34.3262 28.4856 34.962 28.7488 35.6249 28.7488C36.2878 28.7488 36.9236 28.4856 37.3924 28.0169L36.5087 27.1331C36.2708 27.3608 35.9542 27.4879 35.6249 27.4879C35.2956 27.4879 34.9791 27.3608 34.7412 27.1331L34.2674 26.6606C33.7909 26.2067 33.158 25.9535 32.4999 25.9535C31.8418 25.9535 31.2089 26.2067 30.7324 26.6606L30.2587 27.1344C30.0206 27.3618 29.7041 27.4887 29.3749 27.4887C29.0457 27.4887 28.7292 27.3618 28.4912 27.1344L27.6074 28.0181C28.0839 28.4721 28.7168 28.7253 29.3749 28.7253C30.033 28.7253 30.6659 28.4721 31.1424 28.0181Z" fill="#286EF1"/>
<path d="M6.14242 28.0181L6.61617 27.5444C6.85406 27.3167 7.17063 27.1896 7.49992 27.1896C7.8292 27.1896 8.14578 27.3167 8.38367 27.5444L8.85742 28.0169C9.33392 28.4708 9.9668 28.724 10.6249 28.724C11.283 28.724 11.9159 28.4708 12.3924 28.0169L12.8662 27.5431C13.1041 27.3154 13.4206 27.1884 13.7499 27.1884C14.0792 27.1884 14.3958 27.3154 14.6337 27.5431L15.1074 28.0156C15.5762 28.4843 16.212 28.7476 16.8749 28.7476C17.5378 28.7476 18.1736 28.4843 18.6424 28.0156L19.1162 27.5425L18.2324 26.6575L17.7587 27.1312C17.5208 27.3589 17.2042 27.486 16.8749 27.486C16.5456 27.486 16.2291 27.3589 15.9912 27.1312L15.5174 26.6587C15.0409 26.2048 14.408 25.9516 13.7499 25.9516C13.0918 25.9516 12.4589 26.2048 11.9824 26.6587L11.5087 27.1325C11.2708 27.3602 10.9542 27.4873 10.6249 27.4873C10.2956 27.4873 9.97905 27.3602 9.74117 27.1325L9.26742 26.66C8.79092 26.2061 8.15803 25.9528 7.49992 25.9528C6.84181 25.9528 6.20892 26.2061 5.73242 26.66L5.25867 27.1337C5.02064 27.3611 4.70411 27.488 4.37492 27.488C4.04573 27.488 3.7292 27.3611 3.49117 27.1337L2.60742 28.0175C3.08384 28.4715 3.71668 28.7248 4.3748 28.7249C5.03291 28.7251 5.66584 28.472 6.14242 28.0181Z" fill="#286EF1"/>
<path d="M36.5093 30.5806C36.2744 30.8144 35.9566 30.9456 35.6252 30.9456C35.2939 30.9456 34.976 30.8144 34.7412 30.5806L34.268 30.1075C34.0359 29.8753 33.7603 29.6912 33.457 29.5655C33.1536 29.4399 32.8285 29.3752 32.5002 29.3752C32.1719 29.3752 31.8468 29.4399 31.5435 29.5655C31.2402 29.6912 30.9646 29.8753 30.7324 30.1075L30.2593 30.5806C30.0245 30.8144 29.7066 30.9456 29.3752 30.9456C29.0439 30.9456 28.726 30.8144 28.4912 30.5806L28.018 30.1075C27.7859 29.8753 27.5103 29.6912 27.207 29.5655C26.9036 29.4399 26.5785 29.3752 26.2502 29.3752C25.9219 29.3752 25.5968 29.4399 25.2935 29.5655C24.9902 29.6912 24.7146 29.8753 24.4824 30.1075L24.0093 30.5806C23.7745 30.8144 23.4566 30.9456 23.1252 30.9456C22.7939 30.9456 22.476 30.8144 22.2412 30.5806L21.768 30.1075C21.5359 29.8753 21.2603 29.6912 20.957 29.5655C20.6536 29.4399 20.3285 29.3752 20.0002 29.3752C19.6719 29.3752 19.3468 29.4399 19.0435 29.5655C18.7402 29.6912 18.4646 29.8753 18.2324 30.1075L17.7593 30.5806C17.5245 30.8144 17.2066 30.9456 16.8752 30.9456C16.5439 30.9456 16.226 30.8144 15.9912 30.5806L15.518 30.1075C15.2859 29.8753 15.0103 29.6912 14.707 29.5655C14.4036 29.4399 14.0785 29.3752 13.7502 29.3752C13.4219 29.3752 13.0968 29.4399 12.7935 29.5655C12.4902 29.6912 12.2146 29.8753 11.9824 30.1075L11.5093 30.5806C11.2745 30.8144 10.9566 30.9456 10.6252 30.9456C10.2939 30.9456 9.97601 30.8144 9.74117 30.5806L9.26805 30.1075C8.79151 29.6534 8.1585 29.4001 7.50023 29.4001C6.84197 29.4001 6.20895 29.6534 5.73242 30.1075L5.2593 30.5806C5.02446 30.8144 4.70659 30.9456 4.37523 30.9456C4.04388 30.9456 3.72601 30.8144 3.49117 30.5806L2.60742 31.4644C2.83957 31.6965 3.11517 31.8807 3.4185 32.0063C3.72182 32.132 4.04692 32.1966 4.37523 32.1966C4.70355 32.1966 5.02865 32.132 5.33197 32.0063C5.63529 31.8807 5.9109 31.6965 6.14305 31.4644L6.61617 30.9912C6.73225 30.8751 6.87007 30.783 7.02176 30.7201C7.17345 30.6573 7.33604 30.6249 7.50023 30.6249C7.66443 30.6249 7.82701 30.6573 7.9787 30.7201C8.13039 30.783 8.26822 30.8751 8.3843 30.9912L8.85742 31.4644C9.08957 31.6965 9.36517 31.8807 9.66849 32.0063C9.97182 32.132 10.2969 32.1966 10.6252 32.1966C10.9535 32.1966 11.2786 32.132 11.582 32.0063C11.8853 31.8807 12.1609 31.6965 12.393 31.4644L12.8662 30.9912C12.9822 30.8751 13.1201 30.783 13.2718 30.7201C13.4235 30.6573 13.586 30.6249 13.7502 30.6249C13.9144 30.6249 14.077 30.6573 14.2287 30.7201C14.3804 30.783 14.5182 30.8751 14.6343 30.9912L15.1074 31.4644C15.3396 31.6965 15.6152 31.8807 15.9185 32.0063C16.2218 32.132 16.5469 32.1966 16.8752 32.1966C17.2035 32.1966 17.5286 32.132 17.832 32.0063C18.1353 31.8807 18.4109 31.6965 18.643 31.4644L19.1162 30.9912C19.2322 30.8751 19.3701 30.783 19.5218 30.7201C19.6734 30.6573 19.836 30.6249 20.0002 30.6249C20.1644 30.6249 20.327 30.6573 20.4787 30.7201C20.6304 30.783 20.7682 30.8751 20.8843 30.9912L21.3574 31.4644C21.5896 31.6965 21.8652 31.8807 22.1685 32.0063C22.4718 32.132 22.7969 32.1966 23.1252 32.1966C23.4535 32.1966 23.7786 32.132 24.082 32.0063C24.3853 31.8807 24.6609 31.6965 24.893 31.4644L25.3662 30.9912C25.4822 30.8751 25.6201 30.783 25.7718 30.7201C25.9234 30.6573 26.086 30.6249 26.2502 30.6249C26.4144 30.6249 26.577 30.6573 26.7287 30.7201C26.8804 30.783 27.0182 30.8751 27.1343 30.9912L27.6074 31.4644C27.8396 31.6965 28.1152 31.8807 28.4185 32.0063C28.7218 32.132 29.0469 32.1966 29.3752 32.1966C29.7035 32.1966 30.0286 32.132 30.332 32.0063C30.6353 31.8807 30.9109 31.6965 31.143 31.4644L31.6162 30.9912C31.8543 30.7638 32.1709 30.6369 32.5002 30.6369C32.8295 30.6369 33.1462 30.7638 33.3843 30.9912L33.8574 31.4644C34.0896 31.6965 34.3652 31.8807 34.6685 32.0063C34.9718 32.132 35.2969 32.1966 35.6252 32.1966C35.9535 32.1966 36.2786 32.132 36.582 32.0063C36.8853 31.8807 37.1609 31.6965 37.393 31.4644L36.5093 30.5806Z" fill="#286EF1"/>
<path d="M36.5087 33.7169C36.2708 33.9446 35.9542 34.0716 35.6249 34.0716C35.2956 34.0716 34.979 33.9446 34.7412 33.7169L34.2674 33.2444C33.7909 32.7904 33.158 32.5372 32.4999 32.5372C31.8418 32.5372 31.2089 32.7904 30.7324 33.2444L30.2587 33.7181C30.0208 33.9458 29.7042 34.0729 29.3749 34.0729C29.0456 34.0729 28.729 33.9458 28.4912 33.7181L28.0174 33.2456C27.5409 32.7917 26.908 32.5385 26.2499 32.5385C25.5918 32.5385 24.9589 32.7917 24.4824 33.2456L24.0087 33.7194C23.7708 33.9471 23.4542 34.0741 23.1249 34.0741C22.7956 34.0741 22.479 33.9471 22.2412 33.7194L21.7674 33.2469C21.2909 32.7929 20.658 32.5397 19.9999 32.5397C19.3418 32.5397 18.7089 32.7929 18.2324 33.2469L17.7587 33.7206C17.5208 33.9483 17.2042 34.0754 16.8749 34.0754C16.5456 34.0754 16.2291 33.9483 15.9912 33.7206L15.5174 33.2481C15.0409 32.7942 14.408 32.541 13.7499 32.541C13.0918 32.541 12.4589 32.7942 11.9824 33.2481L11.5087 33.7219C11.2708 33.9496 10.9542 34.0766 10.6249 34.0766C10.2956 34.0766 9.97906 33.9496 9.74117 33.7219L9.26742 33.2494C8.79092 32.7954 8.15803 32.5422 7.49992 32.5422C6.84181 32.5422 6.20892 32.7954 5.73242 33.2494L5.25867 33.7231C5.02064 33.9505 4.70411 34.0774 4.37492 34.0774C4.04573 34.0774 3.7292 33.9505 3.49117 33.7231L2.60742 34.6006C3.08392 35.0546 3.71681 35.3078 4.37492 35.3078C5.03303 35.3078 5.66592 35.0546 6.14242 34.6006L6.61617 34.1269C6.8542 33.8995 7.17073 33.7726 7.49992 33.7726C7.82911 33.7726 8.14564 33.8995 8.38367 34.1269L8.85742 34.5994C9.33392 35.0533 9.96681 35.3065 10.6249 35.3065C11.283 35.3065 11.9159 35.0533 12.3924 34.5994L12.8662 34.1256C13.1042 33.8982 13.4207 33.7713 13.7499 33.7713C14.0791 33.7713 14.3956 33.8982 14.6337 34.1256L15.1074 34.5981C15.5839 35.0521 16.2168 35.3053 16.8749 35.3053C17.533 35.3053 18.1659 35.0521 18.6424 34.5981L19.1162 34.1244C19.3542 33.897 19.6707 33.7701 19.9999 33.7701C20.3291 33.7701 20.6456 33.897 20.8837 34.1244L21.3574 34.5969C21.8339 35.0508 22.4668 35.304 23.1249 35.304C23.783 35.304 24.4159 35.0508 24.8924 34.5969L25.3662 34.1231C25.6042 33.8957 25.9207 33.7688 26.2499 33.7688C26.5791 33.7688 26.8956 33.8957 27.1337 34.1231L27.6074 34.5956C28.0839 35.0496 28.7168 35.3028 29.3749 35.3028C30.033 35.3028 30.6659 35.0496 31.1424 34.5956L31.6162 34.1219C31.8542 33.8945 32.1707 33.7676 32.4999 33.7676C32.8291 33.7676 33.1456 33.8945 33.3837 34.1219L33.8574 34.5944C34.3262 35.0631 34.962 35.3263 35.6249 35.3263C36.2878 35.3263 36.9236 35.0631 37.3924 34.5944L36.5087 33.7169Z" fill="#286EF1"/>
</svg>
