<svg width="28" height="28" viewBox="0 0 28 28" fill="none" xmlns="http://www.w3.org/2000/svg">
<g clip-path="url(#clip0_147_815)">
<path d="M17.2542 3.33936H21.3982C21.6248 3.33936 21.8084 3.15571 21.8084 2.92919C21.8084 2.70266 21.6248 2.51901 21.3982 2.51901H17.2542C17.0276 2.51901 16.844 2.70266 16.844 2.92919C16.844 3.15571 17.0276 3.33936 17.2542 3.33936Z" fill="#286EF1"/>
<path d="M17.2542 5.23322H19.3263C19.5528 5.23322 19.7364 5.04957 19.7364 4.82304C19.7364 4.59652 19.5528 4.41287 19.3263 4.41287H17.2542C17.0276 4.41287 16.844 4.59652 16.844 4.82304C16.844 5.04957 17.0276 5.23322 17.2542 5.23322Z" fill="#286EF1"/>
<path d="M21.3982 6.327H17.2542C17.0276 6.327 16.844 6.51064 16.844 6.73717C16.844 6.9637 17.0276 7.14735 17.2542 7.14735H21.3982C21.6248 7.14735 21.8084 6.9637 21.8084 6.73717C21.8084 6.51064 21.6248 6.327 21.3982 6.327Z" fill="#286EF1"/>
<path d="M17.2542 9.04115H19.3263C19.5528 9.04115 19.7364 8.8575 19.7364 8.63097C19.7364 8.40444 19.5528 8.22079 19.3263 8.22079H17.2542C17.0276 8.22079 16.844 8.40444 16.844 8.63097C16.844 8.8575 17.0276 9.04115 17.2542 9.04115Z" fill="#286EF1"/>
<path d="M21.3982 10.1068H17.2542C17.0276 10.1068 16.844 10.2905 16.844 10.517C16.844 10.7435 17.0276 10.9272 17.2542 10.9272H21.3982C21.6248 10.9272 21.8084 10.7435 21.8084 10.517C21.8084 10.2905 21.6248 10.1068 21.3982 10.1068Z" fill="#286EF1"/>
<path d="M17.2542 12.821H19.3263C19.5528 12.821 19.7364 12.6374 19.7364 12.4108C19.7364 12.1843 19.5528 12.0007 19.3263 12.0007H17.2542C17.0276 12.0007 16.844 12.1843 16.844 12.4108C16.844 12.6374 17.0276 12.821 17.2542 12.821Z" fill="#286EF1"/>
<path d="M21.3982 13.9223H17.2542C17.0276 13.9223 16.844 14.1059 16.844 14.3324C16.844 14.559 17.0276 14.7426 17.2542 14.7426H21.3982C21.6248 14.7426 21.8084 14.559 21.8084 14.3324C21.8084 14.1059 21.6248 13.9223 21.3982 13.9223V13.9223Z" fill="#286EF1"/>
<path d="M19.3263 15.8161H17.2542C17.0276 15.8161 16.844 15.9998 16.844 16.2263C16.844 16.4528 17.0276 16.6365 17.2542 16.6365H19.3263C19.5528 16.6365 19.7364 16.4528 19.7364 16.2263C19.7364 15.9998 19.5528 15.8161 19.3263 15.8161Z" fill="#286EF1"/>
<path d="M15.175 17.2408V6.61855C15.175 6.39203 14.9915 6.20838 14.7649 6.20838C14.5383 6.20838 14.3547 6.39203 14.3547 6.61855V17.4705C14.3547 17.6163 14.4321 17.7511 14.558 17.8247C16.0945 18.7223 17.0489 20.384 17.0489 22.1612C17.0489 23.5149 16.5181 24.784 15.5541 25.7346C14.5904 26.685 13.3134 27.1991 11.9589 27.1792C10.6614 27.1612 9.43449 26.644 8.50411 25.723C7.57362 24.802 7.04422 23.5805 7.01343 22.2836C6.97001 20.4557 7.9239 18.7472 9.5029 17.8248C9.6288 17.7512 9.70619 17.6163 9.70619 17.4706V3.14466C9.70619 1.86301 10.7488 0.820346 12.0304 0.820346C13.3121 0.820346 14.3548 1.86301 14.3548 3.14466V4.71349C14.3548 4.94001 14.5383 5.12366 14.7649 5.12366C14.9915 5.12366 15.1751 4.94001 15.1751 4.71349V3.14466C15.1751 1.41067 13.7644 0 12.0304 0C10.2965 0 8.88579 1.41067 8.88579 3.14466V17.2407C7.17105 18.3385 6.14468 20.2565 6.1933 22.303C6.22918 23.8133 6.84488 25.2349 7.92697 26.306C9.00895 27.377 10.4368 27.9785 11.9474 27.9995C11.9754 27.9999 12.0033 28.0001 12.0313 28.0001C13.576 28.0001 15.0287 27.4049 16.1301 26.3187C17.2516 25.2127 17.8693 23.7362 17.8693 22.1612C17.8692 20.1731 16.8429 18.3094 15.175 17.2408V17.2408Z" fill="#286EF1"/>
<path d="M10.3304 19.2495C10.9573 18.8832 11.3467 18.2047 11.3467 17.4787V16.1459C11.3467 15.9194 11.1631 15.7358 10.9366 15.7358C10.71 15.7358 10.5264 15.9194 10.5264 16.1459V17.4787C10.5264 17.9143 10.2927 18.3214 9.91665 18.5412C8.5954 19.3131 7.7972 20.7427 7.83346 22.2722C7.85916 23.3558 8.30226 24.3772 9.0811 25.1481C9.85993 25.9191 10.886 26.352 11.9706 26.3671C11.9893 26.3673 12.0079 26.3674 12.0265 26.3674C13.14 26.3674 14.1863 25.9394 14.978 25.1586C15.7844 24.3633 16.2285 23.3018 16.2285 22.1694C16.2285 20.6825 15.4298 19.2923 14.1441 18.5411C13.768 18.3214 13.5343 17.9143 13.5343 17.4787V3.15274C13.5343 2.32343 12.8597 1.64877 12.0304 1.64877C11.2011 1.64877 10.5264 2.32343 10.5264 3.15274V14.223C10.5264 14.4496 10.71 14.6332 10.9366 14.6332C11.1631 14.6332 11.3467 14.4496 11.3467 14.223V7.80361H12.714V17.4786C12.714 18.2047 13.1034 18.8832 13.7303 19.2494C14.7653 19.854 15.4082 20.9728 15.4082 22.1693C15.4082 23.0804 15.0509 23.9346 14.402 24.5745C13.7544 25.2132 12.8969 25.5599 11.9816 25.5468C11.1106 25.5346 10.2855 25.186 9.65829 24.5651C9.03106 23.9442 8.67426 23.123 8.65364 22.2527C8.62433 21.0216 9.26688 19.8708 10.3304 19.2495V19.2495ZM11.3467 6.98327V3.15274C11.3467 2.77576 11.6534 2.46912 12.0304 2.46912C12.4073 2.46912 12.714 2.77576 12.714 3.15274V6.98327H11.3467Z" fill="#286EF1"/>
</g>
<defs>
<clipPath id="clip0_147_815">
<rect width="28" height="28" fill="white"/>
</clipPath>
</defs>
</svg>
